#Comment line ignore any data following # character 
#Hierarchical Translation and Rotation (.htr) file 
[Header]	
#Header keywords are followed by a single value 
FileType HTR		#Single word string
DataType HTRS		#Translation followed by rotation and scale data
FileVersion 1		#integer
NumSegments 84		#integer
NumFrames 2		#integer
DataFrameRate 30		#integer, data frame rate in this file
EulerRotationOrder ZYX
CalibrationUnits mm
RotationUnits Degrees
GlobalAxisofGravity Y
BoneLengthAxis Y
ScaleFactor 1.00
[SegmentNames&Hierarchy]
#CHILD	PARENT
MASTER GLOBAL
root MASTER
chest root
L_mid_tent01 root
R_mid_tent01 root
spine01 root
Bip01_Neck chest
L_humerus chest
R_humerus chest
weapon_bone chest
Bip01_Head Bip01_Neck
eye_left_bone Bip01_Head
eye_right_bone Bip01_Head
L_forearm L_humerus
L_front_hand L_forearm
L_weapon_bone L_forearm
L_front_hand01_01 L_front_hand
L_front_hand02_01 L_front_hand
L_front_hand03_01 L_front_hand
L_front_hand01_02 L_front_hand01_01
L_front_hand02_02 L_front_hand02_01
L_front_hand03_02 L_front_hand03_01
R_forearm R_humerus
R_front_hand R_forearm
R_weapon_bone R_forearm
R_front_hand01_01 R_front_hand
R_front_hand02_01 R_front_hand
R_front_hand03_01 R_front_hand
R_front_hand01_02 R_front_hand01_01
R_front_hand02_02 R_front_hand02_01
R_front_hand03_02 R_front_hand03_01
null_rope01_connect L_mid_tent01
Rope1_Seg01 null_rope01_connect
Rope1_Seg02 Rope1_Seg01
Rope1_Seg03 Rope1_Seg02
Rope1_Seg04 Rope1_Seg03
Rope1_Seg05 Rope1_Seg04
Rope1_Seg06 Rope1_Seg05
Rope1_Seg07 Rope1_Seg06
Rope1_Seg09 Rope1_Seg07
L_mid_hand01 Rope1_Seg09
L_mid_hand02 Rope1_Seg09
L_mid_hand03 Rope1_Seg09
null_rope02_connect R_mid_tent01
Rope2_Seg01 null_rope02_connect
Rope2_Seg02 Rope2_Seg01
Rope2_Seg03 Rope2_Seg02
Rope2_Seg04 Rope2_Seg03
Rope2_Seg05 Rope2_Seg04
Rope2_Seg06 Rope2_Seg05
Rope2_Seg07 Rope2_Seg06
Rope2_Seg09 Rope2_Seg07
R_mid_hand01 Rope2_Seg09
R_mid_hand02 Rope2_Seg09
R_mid_hand03 Rope2_Seg09
spine02 spine01
spine03 spine02
pelvis spine03
null_rope03_connect pelvis
null_rope04_connect pelvis
Rope3_Seg01 null_rope03_connect
Rope3_Seg02 Rope3_Seg01
Rope3_Seg03 Rope3_Seg02
Rope3_Seg04 Rope3_Seg03
Rope3_Seg05 Rope3_Seg04
Rope3_Seg06 Rope3_Seg05
Rope3_Seg07 Rope3_Seg06
Rope3_Seg08 Rope3_Seg07
Rope3_Seg09 Rope3_Seg08
R_rear_hand01 Rope3_Seg09
R_rear_hand02 Rope3_Seg09
R_rear_hand03 Rope3_Seg09
Rope4_Seg01 null_rope04_connect
Rope4_Seg02 Rope4_Seg01
Rope4_Seg03 Rope4_Seg02
Rope4_Seg04 Rope4_Seg03
Rope4_Seg05 Rope4_Seg04
Rope4_Seg06 Rope4_Seg05
Rope4_Seg07 Rope4_Seg06
Rope4_Seg08 Rope4_Seg07
Rope4_Seg09 Rope4_Seg08
L_rear_hand01 Rope4_Seg09
L_rear_hand02 Rope4_Seg09
L_rear_hand03 Rope4_Seg09
[BasePosition]
#SegmentName Tx, Ty, Tz, Rx, Ry, Rz, BoneLength
MASTER 0.000000 0.000000 0.000000 -90.000000 0.000000 0.000000 10.000000 
root 0.000000 0.000000 0.000000 0.000000 0.000000 0.000000 10.000000 
chest 0.000000 0.000000 0.000000 0.000000 0.000000 0.000000 10.000000 
L_mid_tent01 0.000000 0.000000 0.000000 0.000000 0.000000 0.000000 10.000000 
R_mid_tent01 0.000000 0.000000 0.000000 0.000000 0.000000 0.000000 10.000000 
spine01 0.000000 0.000000 0.000000 0.000000 0.000000 0.000000 10.000000 
Bip01_Neck 0.000000 0.000000 0.000000 0.000000 0.000000 0.000000 10.000000 
L_humerus 0.000000 0.000000 0.000000 0.000000 0.000000 0.000000 10.000000 
R_humerus 0.000000 0.000000 0.000000 0.000000 0.000000 0.000000 10.000000 
weapon_bone 0.000000 0.000000 0.000000 0.000000 0.000000 0.000000 10.000000 
Bip01_Head 0.000000 0.000000 0.000000 0.000000 0.000000 0.000000 10.000000 
eye_left_bone 0.000000 0.000000 0.000000 0.000000 0.000000 0.000000 10.000000 
eye_right_bone 0.000000 0.000000 0.000000 0.000000 0.000000 0.000000 10.000000 
L_forearm 0.000000 0.000000 0.000000 0.000000 0.000000 0.000000 10.000000 
L_front_hand 0.000000 0.000000 0.000000 0.000000 0.000000 0.000000 10.000000 
L_weapon_bone 0.000000 0.000000 0.000000 0.000000 0.000000 0.000000 10.000000 
L_front_hand01_01 0.000000 0.000000 0.000000 0.000000 0.000000 0.000000 10.000000 
L_front_hand02_01 0.000000 0.000000 0.000000 0.000000 0.000000 0.000000 10.000000 
L_front_hand03_01 0.000000 0.000000 0.000000 0.000000 0.000000 0.000000 10.000000 
L_front_hand01_02 0.000000 0.000000 0.000000 0.000000 0.000000 0.000000 10.000000 
L_front_hand02_02 0.000000 0.000000 0.000000 0.000000 0.000000 0.000000 10.000000 
L_front_hand03_02 0.000000 0.000000 0.000000 0.000000 0.000000 0.000000 10.000000 
R_forearm 0.000000 0.000000 0.000000 0.000000 0.000000 0.000000 10.000000 
R_front_hand 0.000000 0.000000 0.000000 0.000000 0.000000 0.000000 10.000000 
R_weapon_bone 0.000000 0.000000 0.000000 0.000000 0.000000 0.000000 10.000000 
R_front_hand01_01 0.000000 0.000000 0.000000 0.000000 0.000000 0.000000 10.000000 
R_front_hand02_01 0.000000 0.000000 0.000000 0.000000 0.000000 0.000000 10.000000 
R_front_hand03_01 0.000000 0.000000 0.000000 0.000000 0.000000 0.000000 10.000000 
R_front_hand01_02 0.000000 0.000000 0.000000 0.000000 0.000000 0.000000 10.000000 
R_front_hand02_02 0.000000 0.000000 0.000000 0.000000 0.000000 0.000000 10.000000 
R_front_hand03_02 0.000000 0.000000 0.000000 0.000000 0.000000 0.000000 10.000000 
null_rope01_connect 0.000000 0.000000 0.000000 0.000000 0.000000 0.000000 10.000000 
Rope1_Seg01 0.000000 0.000000 0.000000 0.000000 0.000000 0.000000 10.000000 
Rope1_Seg02 0.000000 0.000000 0.000000 0.000000 0.000000 0.000000 10.000000 
Rope1_Seg03 0.000000 0.000000 0.000000 0.000000 0.000000 0.000000 10.000000 
Rope1_Seg04 0.000000 0.000000 0.000000 0.000000 0.000000 0.000000 10.000000 
Rope1_Seg05 0.000000 0.000000 0.000000 0.000000 0.000000 0.000000 10.000000 
Rope1_Seg06 0.000000 0.000000 0.000000 0.000000 0.000000 0.000000 10.000000 
Rope1_Seg07 0.000000 0.000000 0.000000 0.000000 0.000000 0.000000 10.000000 
Rope1_Seg09 0.000000 0.000000 0.000000 0.000000 0.000000 0.000000 10.000000 
L_mid_hand01 0.000000 0.000000 0.000000 0.000000 0.000000 0.000000 10.000000 
L_mid_hand02 0.000000 0.000000 0.000000 0.000000 0.000000 0.000000 10.000000 
L_mid_hand03 0.000000 0.000000 0.000000 0.000000 0.000000 0.000000 10.000000 
null_rope02_connect 0.000000 0.000000 0.000000 0.000000 0.000000 0.000000 10.000000 
Rope2_Seg01 0.000000 0.000000 0.000000 0.000000 0.000000 0.000000 10.000000 
Rope2_Seg02 0.000000 0.000000 0.000000 0.000000 0.000000 0.000000 10.000000 
Rope2_Seg03 0.000000 0.000000 0.000000 0.000000 0.000000 0.000000 10.000000 
Rope2_Seg04 0.000000 0.000000 0.000000 0.000000 0.000000 0.000000 10.000000 
Rope2_Seg05 0.000000 0.000000 0.000000 0.000000 0.000000 0.000000 10.000000 
Rope2_Seg06 0.000000 0.000000 0.000000 0.000000 0.000000 0.000000 10.000000 
Rope2_Seg07 0.000000 0.000000 0.000000 0.000000 0.000000 0.000000 10.000000 
Rope2_Seg09 0.000000 0.000000 0.000000 0.000000 0.000000 0.000000 10.000000 
R_mid_hand01 0.000000 0.000000 0.000000 0.000000 0.000000 0.000000 10.000000 
R_mid_hand02 0.000000 0.000000 0.000000 0.000000 0.000000 0.000000 10.000000 
R_mid_hand03 0.000000 0.000000 0.000000 0.000000 0.000000 0.000000 10.000000 
spine02 0.000000 0.000000 0.000000 0.000000 0.000000 0.000000 10.000000 
spine03 0.000000 0.000000 0.000000 0.000000 0.000000 0.000000 10.000000 
pelvis 0.000000 0.000000 0.000000 0.000000 0.000000 0.000000 10.000000 
null_rope03_connect 0.000000 0.000000 0.000000 0.000000 0.000000 0.000000 10.000000 
null_rope04_connect 0.000000 0.000000 0.000000 0.000000 0.000000 0.000000 10.000000 
Rope3_Seg01 0.000000 0.000000 0.000000 0.000000 0.000000 0.000000 10.000000 
Rope3_Seg02 0.000000 0.000000 0.000000 0.000000 0.000000 0.000000 10.000000 
Rope3_Seg03 0.000000 0.000000 0.000000 0.000000 0.000000 0.000000 10.000000 
Rope3_Seg04 0.000000 0.000000 0.000000 0.000000 0.000000 0.000000 10.000000 
Rope3_Seg05 0.000000 0.000000 0.000000 0.000000 0.000000 0.000000 10.000000 
Rope3_Seg06 0.000000 0.000000 0.000000 0.000000 0.000000 0.000000 10.000000 
Rope3_Seg07 0.000000 0.000000 0.000000 0.000000 0.000000 0.000000 10.000000 
Rope3_Seg08 0.000000 0.000000 0.000000 0.000000 0.000000 0.000000 10.000000 
Rope3_Seg09 0.000000 0.000000 0.000000 0.000000 0.000000 0.000000 10.000000 
R_rear_hand01 0.000000 0.000000 0.000000 0.000000 0.000000 0.000000 10.000000 
R_rear_hand02 0.000000 0.000000 0.000000 0.000000 0.000000 0.000000 10.000000 
R_rear_hand03 0.000000 0.000000 0.000000 0.000000 0.000000 0.000000 10.000000 
Rope4_Seg01 0.000000 0.000000 0.000000 0.000000 0.000000 0.000000 10.000000 
Rope4_Seg02 0.000000 0.000000 0.000000 0.000000 0.000000 0.000000 10.000000 
Rope4_Seg03 0.000000 0.000000 0.000000 0.000000 0.000000 0.000000 10.000000 
Rope4_Seg04 0.000000 0.000000 0.000000 0.000000 0.000000 0.000000 10.000000 
Rope4_Seg05 0.000000 0.000000 0.000000 0.000000 0.000000 0.000000 10.000000 
Rope4_Seg06 0.000000 0.000000 0.000000 0.000000 0.000000 0.000000 10.000000 
Rope4_Seg07 0.000000 0.000000 0.000000 0.000000 0.000000 0.000000 10.000000 
Rope4_Seg08 0.000000 0.000000 0.000000 0.000000 0.000000 0.000000 10.000000 
Rope4_Seg09 0.000000 0.000000 0.000000 0.000000 0.000000 0.000000 10.000000 
L_rear_hand01 0.000000 0.000000 0.000000 0.000000 0.000000 0.000000 10.000000 
L_rear_hand02 0.000000 0.000000 0.000000 0.000000 0.000000 0.000000 10.000000 
L_rear_hand03 0.000000 0.000000 0.000000 0.000000 0.000000 0.000000 10.000000 
#Beginning of Data. Separated by tabs
#Fr	Tx	Ty	Tz	Rx	Ry	Rz	SF
[MASTER]
28 0.000000 0.000000 0.000000 0.001660 0.001660 0.001660 0.000000
29 0.000000 0.000000 0.000000 0.001660 0.001660 0.001660 0.000000
[root]
28 -13.001023 -62.822117 638.659058 -85.981110 -2.781743 -90.734116 641.873047
29 -3.865240 -62.822109 661.378906 -86.266998 -1.295082 -90.852051 664.367065
[chest]
28 -83.502411 -23.915258 -7.461478 3.694980 7.979527 162.908371 87.179504
29 -84.007568 -29.002850 -3.730732 3.943084 9.299266 164.044037 88.951424
[L_mid_tent01]
28 25.188709 23.386889 -236.355057 50.078358 26.451452 101.447090 238.841217
29 24.236969 23.932240 -230.239639 64.289337 30.574154 104.218231 232.745514
[R_mid_tent01]
28 23.228794 24.509907 226.238495 -106.969734 -23.415564 103.937912 228.744751
29 23.228794 24.509907 226.238495 -78.949173 -26.310156 109.017838 228.744751
[spine01]
28 -0.361383 -0.195265 0.000000 -0.000001 -0.000007 22.052340 0.410763
29 -0.361383 -0.195265 0.000000 -0.000001 -0.000007 22.052340 0.410763
[Bip01_Neck]
28 165.484543 71.581718 0.000119 175.896118 1.177290 24.871183 180.302734
29 165.484543 71.581718 0.000119 175.896118 1.177290 24.871183 180.302734
[L_humerus]
28 -13.983130 -135.272980 -120.471481 -0.463709 72.790443 89.726944 181.680161
29 -13.983130 -135.272980 -120.471481 -14.353093 71.701256 72.722198 181.680161
[R_humerus]
28 -13.983309 -135.273102 125.287651 -9.451945 -57.013847 108.566872 184.909012
29 -13.983309 -135.273102 125.287651 -6.691739 -54.780453 100.852402 184.909012
[weapon_bone]
28 235.964890 -300.705902 0.000000 0.000000 -89.951546 -128.212341 382.234833
29 235.964890 -300.705902 0.000000 0.000000 -89.951546 -128.212341 382.234833
[Bip01_Head]
28 202.278748 124.330994 17.008230 -4.338171 -1.309052 -27.602261 238.042358
29 199.609329 112.209473 19.408976 -8.204681 -4.648919 -31.308928 229.807648
[eye_left_bone]
28 -24.626970 125.451866 -64.772606 0.000000 -90.000000 -99.840431 143.318359
29 -24.626970 125.451866 -64.772606 0.000000 -90.000000 -99.840431 143.318359
[eye_right_bone]
28 -24.626970 125.451866 64.327362 0.000000 -89.960434 80.159386 143.117676
29 -24.626970 125.451866 64.327362 0.000000 -89.960434 80.159386 143.117676
[L_forearm]
28 322.776093 0.000000 -0.000119 0.000080 -0.002346 -93.888458 322.776093
29 322.776093 0.000000 -0.000119 0.000057 -0.002347 -92.791931 322.776093
[L_front_hand]
28 241.149185 -0.042021 -3.300071 102.075752 1.270084 -15.668854 241.171753
29 241.149185 -0.042021 -3.300071 93.339478 -0.400724 -18.063406 241.171753
[L_weapon_bone]
28 156.183838 0.000000 0.000000 0.000014 0.000007 0.000001 156.183838
29 156.183838 0.000000 0.000000 0.000014 0.000007 0.000001 156.183838
[L_front_hand01_01]
28 86.095154 20.947098 -0.655860 -0.366594 -0.477154 75.385574 88.609184
29 86.095154 20.947098 -0.655860 -0.366594 -0.477154 75.385574 88.609184
[L_front_hand02_01]
28 86.935165 -11.437475 24.513514 154.399796 -59.883835 -61.369587 91.046425
29 86.935165 -11.437475 24.513514 154.399796 -59.883835 -61.369587 91.046425
[L_front_hand03_01]
28 86.637497 -14.123976 -20.424902 -153.913849 58.118122 -62.702866 90.126129
29 86.637497 -14.123976 -20.424902 -153.913849 58.118122 -62.702866 90.126129
[L_front_hand01_02]
28 71.020905 -0.000179 0.000030 0.000099 -0.002345 -94.810501 71.020905
29 71.020905 -0.000179 0.000030 0.000224 -0.002337 -100.950462 71.020905
[L_front_hand02_02]
28 71.020927 -0.000119 0.000060 0.000099 -0.002345 -94.810501 71.020927
29 71.020927 -0.000119 0.000060 0.000224 -0.002337 -100.950462 71.020927
[L_front_hand03_02]
28 71.020905 -0.000060 0.000060 0.000099 -0.002345 -94.810501 71.020905
29 71.020905 -0.000060 0.000060 0.000224 -0.002337 -100.950462 71.020905
[R_forearm]
28 322.776428 -0.000060 0.000030 0.212120 -0.027269 -83.466164 322.776428
29 322.776428 -0.000060 0.000030 0.212245 -0.026256 -84.012909 322.776428
[R_front_hand]
28 238.847015 -0.006795 2.210259 83.983475 -3.820234 -27.198349 238.857239
29 238.847015 -0.006795 2.210259 93.280159 -1.266383 -30.516523 238.857239
[R_weapon_bone]
28 155.664093 0.002503 -0.000030 0.003487 0.001180 -90.988930 155.664078
29 155.664093 0.002503 -0.000030 0.003487 0.001180 -90.988930 155.664078
[R_front_hand01_01]
28 87.624611 14.231146 22.918642 -154.633499 -59.950619 61.746044 91.683487
29 87.624611 14.231146 22.918642 -154.633499 -59.950619 61.746044 91.683487
[R_front_hand02_01]
28 89.356956 14.367283 -19.491137 154.595840 58.306175 63.741730 92.579636
29 89.356956 14.367283 -19.491137 154.595840 58.306175 63.741730 92.579636
[R_front_hand03_01]
28 87.286232 -22.307278 -0.143439 0.162155 -0.423168 -75.767921 90.091743
29 87.286232 -22.307278 -0.143439 0.162155 -0.423168 -75.767906 90.091743
[R_front_hand01_02]
28 71.020905 0.000060 0.000119 0.002345 -0.000098 94.805977 71.020905
29 71.020905 0.000060 0.000119 0.002337 -0.000224 100.952568 71.020905
[R_front_hand02_02]
28 71.020844 -0.000030 -0.000119 0.002345 -0.000098 94.805977 71.020836
29 71.020844 -0.000030 -0.000119 0.002337 -0.000224 100.952568 71.020836
[R_front_hand03_02]
28 71.020905 0.000000 0.000030 0.002345 -0.000098 94.805977 71.020905
29 71.020905 0.000000 0.000030 0.002337 -0.000224 100.952568 71.020905
[null_rope01_connect]
28 328.732483 0.000000 -0.000238 -116.340263 -36.458256 118.280571 328.732483
29 328.732483 0.000000 -0.000238 -115.132782 -22.867872 119.260704 328.732483
[Rope1_Seg01]
28 -0.000021 0.000004 0.000015 130.392914 -32.324902 120.294357 0.000026
29 -0.000020 0.000003 0.000010 131.024414 -33.349331 120.573341 0.000023
[Rope1_Seg02]
28 139.999863 -0.000179 0.000000 -2.228607 -1.858249 -2.515203 139.999863
29 139.999863 -0.000179 0.000000 -2.565882 -2.138194 -2.959052 139.999863
[Rope1_Seg03]
28 139.999924 0.000060 -0.000060 -3.324422 -2.791280 -4.105317 139.999924
29 139.999924 0.000060 -0.000060 -3.905482 -3.295932 -5.031350 139.999924
[Rope1_Seg04]
28 139.999924 -0.000060 -0.000119 -5.484757 -4.807601 -8.135651 139.999924
29 139.999924 -0.000060 -0.000119 -6.500161 -5.866017 -10.823038 139.999924
[Rope1_Seg05]
28 139.999832 0.000119 -0.000060 -8.482714 -9.840025 -25.140182 139.999832
29 139.999832 0.000119 -0.000060 -7.238523 -10.656811 -32.752083 139.999832
[Rope1_Seg06]
28 139.999954 0.000119 -0.000060 0.899138 -12.381439 -41.474392 139.999954
29 139.999954 0.000119 -0.000060 3.882515 -11.619382 -36.832439 139.999954
[Rope1_Seg07]
28 139.999985 0.000060 0.000000 5.962582 -8.046092 -22.497835 139.999985
29 139.999985 0.000060 0.000000 5.645528 -8.232211 -17.867901 139.999985
[Rope1_Seg09]
28 121.602913 0.000119 -0.000089 -89.793175 -1.359789 0.847147 121.602913
29 121.602913 0.000119 -0.000089 -89.793175 -1.359789 0.847147 121.602913
[L_mid_hand01]
28 103.859421 1.038730 8.195221 106.243362 -27.610722 -8.221345 104.187431
29 103.859421 1.038730 8.195221 106.243362 -27.610722 -8.221345 104.187431
[L_mid_hand02]
28 105.572853 -4.139662 -10.864139 -140.972244 23.403242 -25.511135 106.211075
29 105.572853 -4.139662 -10.864139 -140.972244 23.403244 -25.511135 106.211075
[L_mid_hand03]
28 104.641464 17.579376 -3.913581 -16.709753 8.664801 30.543972 106.179977
29 104.641464 17.579376 -3.913581 -16.709753 8.664801 30.543972 106.179977
[null_rope02_connect]
28 328.732849 0.000179 -0.000119 86.895035 15.254727 -61.443516 328.732849
29 328.732849 0.000179 -0.000119 66.736809 -9.144778 -59.474918 328.732849
[Rope2_Seg01]
28 -0.000059 -0.000117 0.000000 -51.233509 -24.719755 54.663029 0.000131
29 -0.000065 -0.000126 0.000000 -51.494591 -24.607809 55.466789 0.000142
[Rope2_Seg02]
28 139.999741 -0.000060 -0.000119 1.828140 2.319052 6.275395 139.999756
29 139.999741 -0.000060 -0.000119 2.344541 2.896300 7.543149 139.999756
[Rope2_Seg03]
28 140.000107 0.000030 0.000000 2.862106 3.664010 9.165719 140.000107
29 140.000107 0.000030 0.000000 3.126204 3.856213 9.587716 140.000107
[Rope2_Seg04]
28 139.999802 0.000000 -0.000060 3.658929 4.247453 11.395621 139.999802
29 139.999802 0.000000 -0.000060 3.011526 3.651121 9.210143 139.999802
[Rope2_Seg05]
28 139.999985 -0.000060 0.000119 7.585953 12.053748 20.442001 139.999985
29 139.999985 -0.000060 0.000119 12.618920 19.460690 31.412861 139.999985
[Rope2_Seg06]
28 139.999893 -0.000030 -0.000119 13.606133 28.539419 40.563145 139.999893
29 139.999893 -0.000030 -0.000119 8.746142 27.642946 35.697807 139.999893
[Rope2_Seg07]
28 139.999893 0.000060 -0.000060 -0.605600 14.953431 17.307669 139.999893
29 139.999893 0.000060 -0.000060 -1.434181 9.554195 11.126844 139.999893
[Rope2_Seg09]
28 121.338966 0.000089 -0.000060 33.793236 -1.359788 -0.847141 121.338966
29 121.338966 0.000089 -0.000060 33.793236 -1.359788 -0.847141 121.338966
[R_mid_hand01]
28 104.680779 11.144459 -10.335981 -42.750736 22.953909 25.606682 105.778534
29 104.680779 11.144459 -10.335981 -42.750736 22.953909 25.606682 105.778534
[R_mid_hand02]
28 104.070427 2.443552 8.231699 73.485046 -29.224543 8.771014 104.424065
29 104.070427 2.443552 8.231699 73.485046 -29.224543 8.771014 104.424065
[R_mid_hand03]
28 106.028137 -11.221827 -5.996406 -167.274673 9.466213 -33.359013 106.788818
29 106.028137 -11.221827 -5.996406 -167.274673 9.466213 -33.359016 106.788818
[spine02]
28 129.756927 0.001550 0.000119 0.102962 -4.044805 -9.315901 129.756927
29 129.756927 0.001550 0.000119 0.050364 -4.052433 -8.584547 129.756927
[spine03]
28 78.830574 0.049554 -2.782498 0.222473 5.946090 -7.395736 78.879684
29 78.973076 0.024752 -1.391247 0.112083 6.824347 -8.714995 78.985336
[pelvis]
28 169.435242 0.051022 0.000000 -0.071067 1.186723 -8.920660 169.435257
29 169.435242 0.051022 0.000000 -0.053079 2.102161 -6.622966 169.435257
[null_rope03_connect]
28 -1.257226 -2.466202 137.391083 -37.542042 -83.913696 133.776016 137.418976
29 -1.257226 -2.466202 137.391083 -52.600334 -82.775368 145.589355 137.418976
[null_rope04_connect]
28 -1.259640 -2.480268 -137.844437 -37.542042 -83.913696 133.776016 137.872513
29 -1.259640 -2.480268 -137.844437 -52.600334 -82.775368 145.589355 137.872513
[Rope3_Seg01]
28 0.000000 0.000000 0.000000 -146.421646 -31.111628 -49.727180 0.000000
29 0.000000 0.000000 0.000000 -140.479355 -24.834007 -55.195522 0.000000
[Rope3_Seg02]
28 139.999924 -0.000119 0.000060 7.370301 -10.333509 11.738980 139.999924
29 139.999924 -0.000119 0.000060 5.546049 -9.840234 10.473984 139.999924
[Rope3_Seg03]
28 139.999924 -0.000119 0.000119 5.833241 -10.967046 17.217749 139.999924
29 139.999924 -0.000119 0.000119 4.555784 -10.793103 14.558381 139.999924
[Rope3_Seg04]
28 139.999924 0.000119 0.000000 2.149902 -6.618525 16.589651 139.999924
29 139.999924 0.000119 0.000000 2.053071 -8.465779 14.561777 139.999924
[Rope3_Seg05]
28 139.999924 -0.000238 0.000060 0.293713 -5.142259 11.184922 139.999924
29 139.999924 -0.000238 0.000060 0.570893 -5.413136 10.118217 139.999924
[Rope3_Seg06]
28 139.999893 -0.000119 -0.000060 -1.766421 -9.294984 15.135302 139.999893
29 139.999893 -0.000119 -0.000060 -0.770115 -7.418069 13.688463 139.999893
[Rope3_Seg07]
28 139.999771 0.000060 -0.000119 -6.462277 -13.102070 20.598370 139.999771
29 139.999771 0.000060 -0.000119 -6.087212 -11.940235 22.451571 139.999771
[Rope3_Seg08]
28 139.999985 -0.000060 0.000000 -4.719761 -8.379093 11.731900 139.999985
29 139.999985 -0.000060 0.000000 -6.186912 -9.148641 14.724260 139.999985
[Rope3_Seg09]
28 90.185997 -0.000179 -0.000060 89.793228 -1.359877 -0.847183 90.185997
29 90.185997 -0.000179 -0.000060 89.793228 -1.359877 -0.847183 90.185997
[R_rear_hand01]
28 103.366196 -6.073594 -10.757982 -161.551193 16.666374 -30.088671 104.101845
29 103.366196 -6.073594 -10.757982 -161.551193 16.666374 -30.088671 104.101845
[R_rear_hand02]
28 100.509819 12.039542 -7.992327 -34.280552 19.289745 28.875523 101.543350
29 100.509819 12.039542 -7.992327 -34.280552 19.289745 28.875523 101.543350
[R_rear_hand03]
28 101.539970 5.215704 5.435467 83.366440 -30.933914 7.284830 101.819031
29 101.539970 5.215704 5.435467 83.366440 -30.933914 7.284830 101.819031
[Rope4_Seg01]
28 -0.000024 -0.000046 -0.000103 75.900131 -40.129734 -141.009537 0.000115
29 -0.000025 -0.000043 -0.000107 71.372070 -37.142769 -138.099533 0.000118
[Rope4_Seg02]
28 139.999985 0.000060 0.000119 -9.542174 5.705971 -9.792170 139.999985
29 139.999985 0.000060 0.000119 -9.724617 6.486757 -10.451260 139.999985
[Rope4_Seg03]
28 139.999924 0.000000 -0.000238 -16.643141 13.923882 -17.517881 139.999924
29 139.999924 0.000000 -0.000238 -15.242702 14.368896 -17.004644 139.999924
[Rope4_Seg04]
28 139.999985 0.000000 0.000119 -17.448744 29.302471 -22.844551 139.999985
29 139.999985 0.000000 0.000119 -14.069522 26.047525 -19.612553 139.999985
[Rope4_Seg05]
28 139.999802 -0.000060 -0.000119 -2.213073 19.328495 -8.822794 139.999802
29 139.999802 -0.000060 -0.000119 -2.219173 16.630386 -8.187530 139.999802
[Rope4_Seg06]
28 139.999924 0.000000 0.000060 0.700756 8.214901 -5.260485 139.999924
29 139.999924 0.000000 0.000060 0.322052 8.640191 -5.416950 139.999924
[Rope4_Seg07]
28 139.999802 0.000000 0.000000 1.759508 8.887262 -9.059571 139.999802
29 139.999802 0.000000 0.000000 1.506010 11.522490 -9.791354 139.999802
[Rope4_Seg08]
28 139.999924 0.000000 0.000119 1.437752 11.152206 -10.253687 139.999924
29 139.999924 0.000000 0.000119 1.791067 13.438427 -11.066388 139.999924
[Rope4_Seg09]
28 90.185791 0.000060 0.000060 -135.617828 2.228885 0.850567 90.185791
29 90.185791 0.000060 0.000060 -135.617828 2.228885 0.850567 90.185791
[L_rear_hand01]
28 101.696655 -8.392275 -7.654577 -35.094959 -17.602720 153.690430 102.329041
29 101.696655 -8.392275 -7.654577 -35.095215 -17.602573 153.690414 102.329041
[L_rear_hand02]
28 102.726799 -1.568258 5.773216 83.558510 27.990494 173.101227 102.900848
29 102.726799 -1.568258 5.773216 83.558449 27.990334 173.101074 102.900848
[L_rear_hand03]
28 104.552910 9.721220 -10.420293 -160.738861 -15.709567 -152.832245 105.519653
29 104.552910 9.721220 -10.420293 -160.738831 -15.709531 -152.832458 105.519653
